<svg xmlns="http://www.w3.org/2000/svg" width="900" height="900" viewBox="0 0 900 900">
  <defs>
    <linearGradient id="bg" x1="0" y1="0" x2="1" y2="1">
      <stop offset="0" stop-color="#2563eb" stop-opacity=".10"/>
      <stop offset="1" stop-color="#7c3aed" stop-opacity=".10"/>
    </linearGradient>
    <linearGradient id="box" x1="0" y1="0" x2="0" y2="1">
      <stop offset="0" stop-color="#ffffff"/>
      <stop offset="1" stop-color="#f6f8fc"/>
    </linearGradient>
  </defs>
  <rect width="900" height="900" fill="url(#bg)"/>
  <g transform="translate(160,150)">
    <rect x="70" y="290" width="440" height="350" rx="26" fill="url(#box)" stroke="#e6eaf2" stroke-width="10"/>
    <rect x="40" y="240" width="500" height="120" rx="26" fill="#ffffff" stroke="#e6eaf2" stroke-width="10"/>
    <rect x="280" y="240" width="70" height="400" rx="16" fill="#2563eb" opacity=".92"/>
    <rect x="40" y="310" width="500" height="80" rx="16" fill="#7c3aed" opacity=".72"/>
    <path d="M315 200c-38-12-72-66-22-95 27-15 58 10 74 41 16-31 47-56 74-41 50 29 16 83-22 95"
          fill="#ffffff" stroke="#e6eaf2" stroke-width="10" stroke-linecap="round" stroke-linejoin="round"/>
    <circle cx="315" cy="192" r="16" fill="#2563eb" opacity=".92"/>
  </g>
</svg>