<svg xmlns="http://www.w3.org/2000/svg" width="1600" height="900" viewBox="0 0 1600 900">
  <defs>
    <linearGradient id="bg" x1="0" y1="0" x2="1" y2="1">
      <stop offset="0" stop-color="#7c3aed" stop-opacity="0.16"/>
      <stop offset="1" stop-color="#2563eb" stop-opacity="0.14"/>
    </linearGradient>
    <linearGradient id="card" x1="0" y1="0" x2="0" y2="1">
      <stop offset="0" stop-color="#ffffff"/>
      <stop offset="1" stop-color="#f6f8fc"/>
    </linearGradient>
    <filter id="shadow" x="-20%" y="-20%" width="140%" height="140%">
      <feDropShadow dx="0" dy="18" stdDeviation="22" flood-color="#0f172a" flood-opacity="0.18"/>
    </filter>
  </defs>

  <rect width="1600" height="900" fill="url(#bg)"/>
  <g filter="url(#shadow)">
    <rect x="110" y="120" width="1380" height="660" rx="34" fill="url(#card)" stroke="#e6eaf2" stroke-width="6"/>
  </g>

  <g>
    <rect x="150" y="160" width="1300" height="420" rx="28" fill="#0b1220" opacity="0.06"/>
    <path d="M150 520C340 390 520 600 680 500C860 380 1010 620 1180 510C1320 430 1410 450 1450 470V580H150Z"
          fill="#2563eb" opacity="0.20"/>
    <path d="M150 540C320 460 560 640 720 540C880 440 1040 650 1200 560C1340 500 1410 520 1450 540V660H150Z"
          fill="#7c3aed" opacity="0.18"/>
  </g>

  <g>
    <text x="210" y="690" font-family="ui-sans-serif,system-ui,-apple-system,Segoe UI,Roboto,Arial" font-size="64" font-weight="900" fill="#0b1220">W Taipei (Marriott)</text>
    <text x="210" y="750" font-family="ui-sans-serif,system-ui,-apple-system,Segoe UI,Roboto,Arial" font-size="30" font-weight="700" fill="#516075">Xinyi base • Taipei 101 nearby</text>
  </g>

  <g>
    <rect x="210" y="205" width="260" height="54" rx="27" fill="#2563eb" opacity="0.10" stroke="#2563eb" stroke-opacity="0.18"/>
    <text x="240" y="242" font-family="ui-sans-serif,system-ui,-apple-system,Segoe UI,Roboto,Arial" font-size="24" font-weight="900" fill="#0b2a6e">2026 • Taiwan</text>
  </g>
</svg>