<svg xmlns="http://www.w3.org/2000/svg" width="1600" height="900" viewBox="0 0 1600 900">
  <defs>
    <linearGradient id="bg" x1="0" y1="0" x2="1" y2="1">
      <stop offset="0" stop-color="#0b1220" stop-opacity="0.08"/>
      <stop offset="1" stop-color="#2563eb" stop-opacity="0.10"/>
    </linearGradient>
    <linearGradient id="card" x1="0" y1="0" x2="0" y2="1">
      <stop offset="0" stop-color="#ffffff"/>
      <stop offset="1" stop-color="#f6f8fc"/>
    </linearGradient>
  </defs>
  <rect width="1600" height="900" fill="url(#bg)"/>
  <g transform="translate(110,120)">
    <rect x="0" y="0" width="1380" height="660" rx="34" fill="url(#card)" stroke="#e6eaf2" stroke-width="6"/>
    <rect x="70" y="70" width="1240" height="360" rx="28" fill="#0b1220" opacity="0.06"/>
    <path d="M70 360C240 250 420 460 600 360C780 260 940 490 1120 380C1240 305 1310 320 1310 320V430H70Z" fill="#2563eb" opacity="0.18"/>
    <path d="M70 392C260 310 470 520 650 410C830 300 1010 540 1180 440C1270 390 1310 410 1310 410V520H70Z" fill="#7c3aed" opacity="0.14"/>
    <text x="70" y="545" font-family="ui-sans-serif,system-ui,-apple-system,Segoe UI,Roboto,Arial" font-size="64" font-weight="900" fill="#0b1220">Le Méridien Hualien</text>
    <text x="70" y="605" font-family="ui-sans-serif,system-ui,-apple-system,Segoe UI,Roboto,Arial" font-size="30" font-weight="700" fill="#516075">Marriott • East Coast</text>
  </g>
</svg>