<svg xmlns="http://www.w3.org/2000/svg" width="800" height="800" viewBox="0 0 800 800">
  <defs>
    <linearGradient id="g1" x1="0" y1="0" x2="1" y2="1">
      <stop offset="0" stop-color="#7c3aed" stop-opacity="0.18"/>
      <stop offset="1" stop-color="#2563eb" stop-opacity="0.14"/>
    </linearGradient>
    <linearGradient id="box" x1="0" y1="0" x2="0" y2="1">
      <stop offset="0" stop-color="#ffffff"/>
      <stop offset="1" stop-color="#f6f8fc"/>
    </linearGradient>
  </defs>
  <rect x="0" y="0" width="800" height="800" fill="url(#g1)"/>
  <g transform="translate(110,140)">
    <rect x="80" y="260" width="420" height="320" rx="22" fill="url(#box)" stroke="#e6eaf2" stroke-width="10"/>
    <rect x="60" y="220" width="460" height="100" rx="22" fill="#ffffff" stroke="#e6eaf2" stroke-width="10"/>
    <rect x="270" y="220" width="70" height="360" rx="14" fill="#2563eb" opacity="0.9"/>
    <rect x="60" y="260" width="460" height="70" rx="14" fill="#7c3aed" opacity="0.75"/>
    <path d="M305 175c-35-10-65-60-20-86 25-14 52 8 66 36 14-28 41-50 66-36 45 26 15 76-20 86"
          fill="#ffffff" stroke="#e6eaf2" stroke-width="10" stroke-linecap="round" stroke-linejoin="round"/>
    <circle cx="305" cy="165" r="14" fill="#2563eb" opacity="0.9"/>
  </g>
</svg>
